<svg xmlns="http://www.w3.org/2000/svg" viewBox="0 0 24 24">
<!-- aerodrome-scale: 63.5 -->
<path d="M 12.00 2.16  L13.62 4.14  L14.73 5.67  L14.73 10.50  L15.66 11.16  L15.72 11.70  L15.87 11.79  L16.20 11.55  L16.29 11.58  L17.49 12.48  L17.49 12.93  L17.58 13.02  L21.78 15.99  L21.78 18.60  L13.98 18.60  L13.83 19.32  L14.01 20.04  L14.10 20.13  L19.59 19.14  L19.59 21.81  L4.41 21.81  L4.41 19.14  L9.93 20.13  L10.17 19.26  L10.05 18.66  L2.19 18.60  L2.19 15.99  L6.36 13.05  L6.48 12.93  L6.48 12.48  L7.65 11.61  L7.80 11.55  L8.10 11.79  L8.22 11.73  L8.31 11.64  L8.31 11.19  L9.24 10.50  L9.24 5.70  L10.41 4.08 Z"/>
</svg>
